<mxfile host="app.diagrams.net" modified="2024-02-29T06:54:46.477Z" agent="Mozilla/5.0 (X11; Linux x86_64; rv:123.0) Gecko/20100101 Firefox/123.0" version="23.1.8" etag="TI_6NS-y3wCn1RwTSVu3" type="github">
  <diagram name="Страница — 1" id="azc4a3y9-8AjPhLtP5WH">
    <mxGraphModel>
      <root>
        <mxCell id="0" />
        <mxCell id="1" parent="0" />
      </root>
    </mxGraphModel>
  </diagram>
</mxfile>
